<?xml version="1.0" encoding="utf-8"?>
<!-- Generator: Adobe Illustrator 17.0.0, SVG Export Plug-In . SVG Version: 6.00 Build 0)  -->
<!DOCTYPE svg PUBLIC "-//W3C//DTD SVG 1.1//EN" "http://www.w3.org/Graphics/SVG/1.1/DTD/svg11.dtd">
<svg version="1.1" xmlns="http://www.w3.org/2000/svg" xmlns:xlink="http://www.w3.org/1999/xlink" x="0px" y="0px" width="900px"
	 height="194.704px" viewBox="0 0 900 194.704" enable-background="new 0 0 900 194.704" xml:space="preserve">
<g id="Layer_1" display="none">
	<g display="inline">
		<g>
			<path fill="#555555" d="M235.124,145.993c-15.614,0.002-31.228,0.008-46.842-0.004c-2.682-0.002-5.181-0.54-7.105-2.646
				c-1.997-2.186-2.24-4.721-0.317-7.243c1.39-1.824,3.038-3.472,4.696-5.067c4.051-3.896,8.185-7.704,12.267-11.568
				c7.144-6.762,14.265-13.548,21.41-20.308c9.405-8.897,18.824-17.779,28.236-26.667c10.543-9.957,21.076-19.925,31.645-29.855
				c1.088-1.022,2.314-1.951,3.608-2.693c3.919-2.245,8.001-0.72,9.463,3.574c0.475,1.396,0.694,2.945,0.7,4.425
				c0.051,13.806,0.014,27.613,0.059,41.42c0.004,1.227,0.325,2.476,0.675,3.663c0.089,0.301,0.976,0.678,1.293,0.543
				c1.235-0.524,2.466-1.128,3.56-1.9c24.479-17.278,48.935-34.589,73.414-51.869c1.593-1.124,3.265-2.178,5.016-3.026
				c2.204-1.068,3.617-0.645,5.043,1.143c1.1,1.379,1.144,2.882-0.433,4.619c-1.602,1.764-3.448,3.358-5.377,4.764
				c-20.524,14.96-41.092,29.859-61.626,44.805c-1.371,0.998-2.669,2.142-3.826,3.381c-1.99,2.132-2.006,4.054,0.117,6.062
				c1.961,1.854,4.098,3.549,6.297,5.119c13.193,9.418,26.444,18.754,39.637,28.171c6.535,4.665,13.011,9.414,19.459,14.199
				c1.148,0.852,2.117,1.996,3.004,3.133c0.983,1.259,1.323,2.744,0.428,4.217c-0.959,1.577-2.289,2.891-4.259,2.505
				c-1.529-0.299-3.12-0.901-4.394-1.786c-6.964-4.842-13.861-9.782-20.739-14.746c-8.994-6.492-17.929-13.065-26.925-19.554
				c-8.586-6.193-17.211-12.332-25.843-18.462c-0.885-0.629-1.911-1.079-2.92-1.496c-0.211-0.087-0.874,0.294-0.922,0.539
				c-0.278,1.416-0.595,2.854-0.604,4.286c-0.052,9.187-0.004,18.375-0.041,27.563c-0.012,2.966-0.557,5.759-2.824,7.997
				c-2.267,2.239-5.095,2.731-8.037,2.739C266.453,146.015,250.789,145.991,235.124,145.993z M241.512,134.021
				c0,0.041,0,0.081,0,0.122c2.257,0,4.515,0.008,6.772-0.001c9.08-0.039,18.16-0.109,27.239-0.114
				c3.895-0.002,5.527-1.506,5.563-5.412c0.033-3.613,0.022-7.226,0.021-10.839c-0.003-17.262-0.005-34.524-0.024-51.786
				c-0.001-1.097,0.008-2.234-0.263-3.282c-0.76-2.934-1.679-3.255-4.083-1.353c-1.883,1.49-3.654,3.131-5.402,4.782
				c-7.074,6.684-14.116,13.401-21.176,20.099c-6.877,6.524-13.755,13.047-20.645,19.557c-8.059,7.614-16.149,15.194-24.172,22.845
				c-0.916,0.874-1.555,2.069-2.18,3.194c-0.152,0.274,0.16,1.161,0.434,1.254c1.215,0.413,2.491,0.888,3.748,0.895
				C218.733,134.049,230.123,134.021,241.512,134.021z"/>
			<path fill="#555555" d="M418.016,97.527c0-9.638,0.017-19.277-0.015-28.915c-0.006-1.949,0.621-3.516,2.166-4.719
				c1.007-0.785,1.961-0.864,2.993-0.02c1.405,1.148,2.185,2.54,2.171,4.405c-0.036,4.819-0.06,9.639,0.017,14.457
				c0.025,1.582,0.356,3.162,0.583,4.738c0.136,0.939,0.698,0.764,1.326,0.464c2.346-1.122,4.647-2.364,7.065-3.303
				c5.918-2.3,11.811-2.049,17.472,0.834c9.603,4.891,14.411,12.956,14.299,23.578c-0.063,5.98-2.439,11.414-6.681,15.874
				c-4.189,4.404-9.278,6.942-15.306,7.59c-4.582,0.492-8.864-0.561-12.948-2.603c-1.291-0.646-2.626-1.203-3.934-1.816
				c-0.687-0.322-0.924-0.021-1.398,0.544c-1.037,1.235-2.283,2.325-3.582,3.288c-0.339,0.251-1.289-0.021-1.782-0.332
				c-1.75-1.105-2.47-2.76-2.462-4.846C418.035,117.005,418.016,107.266,418.016,97.527z M441.742,90.508
				c-0.934,0.143-2.293,0.236-3.592,0.567c-11.335,2.886-16.435,16.86-9.794,26.761c5.392,8.037,15.785,9.975,23.325,4.349
				c6.655-4.966,8.976-14.463,5.224-21.878C453.863,94.295,449.043,90.831,441.742,90.508z"/>
			<path fill="#555555" d="M517.151,110.385c-4.92,0.001-9.839-0.008-14.759,0.013c-0.692,0.003-1.407,0.073-2.071,0.258
				c-2.107,0.585-2.755,1.764-2.038,3.894c1.329,3.947,4.019,6.818,7.576,8.823c6.593,3.716,14.224,2.651,19.694-2.594
				c1.085-1.04,2.163-2.099,3.341-3.027c1.574-1.238,2.864-1.154,4.177,0.092c1.263,1.199,1.497,2.816,0.406,4.366
				c-3.317,4.707-7.645,8.041-13.299,9.508c-12.152,3.155-23.868-3.031-28.802-14.86c-3.867-9.27-0.625-20.795,7.075-27.449
				c4.912-4.245,10.617-6.591,17.119-6.103c6.841,0.513,12.341,3.922,16.751,9.086c3.017,3.532,4.567,7.693,5.286,12.274
				c0.519,3.306-2.544,5.783-5.096,5.742C527.393,110.326,522.271,110.384,517.151,110.385z M513.722,103.269
				c2.107,0,4.217,0.062,6.322-0.016c2.489-0.092,4.973-0.308,7.46-0.466c1.152-0.073,1.582-0.827,1.201-1.747
				c-0.638-1.544-1.285-3.173-2.319-4.45c-7.038-8.691-20.534-7.772-26.424,1.745c-0.414,0.669-0.726,1.442-0.904,2.208
				c-0.278,1.197-0.093,2.195,1.478,2.311c1.038,0.076,2.066,0.38,3.101,0.396C506.998,103.302,510.361,103.269,513.722,103.269z"/>
			<path fill="#555555" d="M606.273,108.159c0,6.275-0.01,12.549,0.005,18.824c0.005,2.026-0.752,3.65-2.534,4.622
				c-0.518,0.282-1.517,0.365-1.917,0.054c-1.159-0.901-2.091-2.088-3.187-3.079c-0.364-0.329-1.025-0.656-1.433-0.547
				c-0.955,0.255-1.891,0.688-2.745,1.2c-12.292,7.375-27.023,1.957-33.077-10.87c-6.441-13.647,1.446-30.676,16.717-34.591
				c5.078-1.302,9.937-0.34,14.555,2.059c1.549,0.805,3.141,1.534,4.755,2.197c0.299,0.123,0.913-0.12,1.179-0.393
				c0.996-1.02,1.799-2.252,2.879-3.161c1.382-1.162,3.741,0.109,4.426,2.35c0.259,0.847,0.358,1.772,0.363,2.663
				C606.287,95.71,606.273,101.935,606.273,108.159z M599.172,108.041c-0.075-3.395-1.141-6.494-2.805-9.417
				c-4.876-8.563-15.769-10.635-23.437-4.455c-6.014,4.846-8.025,12.713-5.17,20.73c2.51,7.05,11.108,12.882,20.062,9.768
				C594.318,122.407,599.185,115.275,599.172,108.041z"/>
			<path fill="#555555" d="M702.023,83.256c5.087,0.117,9.555,2.008,13.673,4.853c0.528,0.365,0.99,0.861,1.388,1.37
				c0.793,1.015,1.458,2.071,0.583,3.41c-0.983,1.504-2.373,2.182-3.972,1.65c-1.131-0.377-2.239-0.907-3.253-1.538
				c-3.772-2.348-7.834-2.939-12.136-2.122c-2.432,0.462-4.346,1.76-5.676,3.865c-0.962,1.523-0.761,3.359,0.402,4.726
				c2.098,2.468,5.041,3.13,7.976,3.85c3.255,0.798,6.562,1.446,9.733,2.501c3.989,1.327,7.217,3.771,8.893,7.798
				c2.204,5.297,0.606,10.802-4.278,14.584c-6.191,4.793-13.095,5.431-20.389,3.155c-3.805-1.187-7.477-2.68-10.203-5.791
				c-1.234-1.409-1.456-2.701-0.719-3.81c0.999-1.504,2.618-2.093,4.352-1.311c1.593,0.717,3.047,1.734,4.598,2.552
				c4.309,2.275,8.82,3.242,13.638,1.93c2.146-0.585,3.908-1.799,5.342-3.479c1.931-2.261,1.796-4.707-0.294-6.839
				c-1.643-1.676-3.695-2.568-5.907-3.132c-3.256-0.83-6.553-1.508-9.785-2.421c-4.654-1.314-8.537-3.718-10.721-8.278
				c-1.278-2.669-1.255-5.326,0.075-7.962c2.784-5.515,7.434-8.351,13.396-9.29c0.544-0.086,1.083-0.216,1.63-0.261
				C700.917,83.22,701.472,83.256,702.023,83.256z"/>
			<path fill="#555555" d="M638.964,108.74c0-4.365,0.037-8.731-0.023-13.095c-0.017-1.234-0.237-2.484-0.536-3.684
				c-0.093-0.372-0.717-0.715-1.167-0.875c-1.672-0.595-3.545-0.641-4.874-2.108c-1.394-1.539-1.522-2.774,0.027-4.139
				c0.822-0.725,1.912-1.321,2.975-1.564c2.865-0.654,3.576-1.37,3.594-4.347c0.021-3.261,0.019-6.523,0-9.784
				c-0.01-1.716,0.624-3.115,1.922-4.221c1.286-1.096,2.344-1.139,3.63-0.063c1.207,1.01,1.915,2.29,1.906,3.917
				c-0.012,2.408-0.002,4.817-0.002,7.225c0,0.903-0.004,1.806,0.001,2.709c0.018,2.99,0.547,3.699,3.356,4.5
				c0.481,0.137,1.003,0.186,1.445,0.401c1.39,0.675,2.654,1.544,2.812,3.244c0.115,1.233-1.463,2.902-3.03,3.393
				c-0.573,0.179-1.154,0.333-1.725,0.52c-2.218,0.729-2.821,1.366-2.833,3.657c-0.047,9.031-0.045,18.062,0.004,27.093
				c0.008,1.486,0.546,2.827,1.991,3.65c0.596,0.339,1.084,0.884,1.584,1.373c0.97,0.95,2.076,1.87,1.34,3.478
				c-0.721,1.577-2.415,2.558-4.192,2.29c-3.53-0.532-5.927-2.658-7.328-5.802c-0.591-1.326-0.806-2.904-0.84-4.376
				C638.897,117.673,638.964,113.206,638.964,108.74z"/>
		</g>
		<g>
			<path fill="#FF0062" d="M235.124,145.993c-15.614,0.002-31.228,0.008-46.842-0.004c-2.682-0.002-5.181-0.54-7.105-2.646
				c-1.997-2.186-2.24-4.721-0.317-7.243c1.39-1.824,3.038-3.472,4.696-5.067c4.051-3.896,8.185-7.704,12.267-11.568
				c7.144-6.762,14.265-13.548,21.41-20.308c9.405-8.897,18.824-17.779,28.236-26.667c10.543-9.957,21.076-19.925,31.645-29.855
				c1.088-1.022,2.314-1.951,3.608-2.693c3.919-2.245,8.001-0.72,9.463,3.574c0.475,1.396,0.694,2.945,0.7,4.425
				c0.051,13.806,0.014,27.613,0.059,41.42c0.004,1.227,0.325,2.476,0.675,3.663c0.089,0.301,0.976,0.678,1.293,0.543
				c1.235-0.524,2.466-1.128,3.56-1.9c24.479-17.278,48.935-34.589,73.414-51.869c1.593-1.124,3.265-2.178,5.016-3.026
				c2.204-1.068,3.617-0.645,5.043,1.143c1.1,1.379,1.144,2.882-0.433,4.619c-1.602,1.764-3.448,3.358-5.377,4.764
				c-20.524,14.96-41.092,29.859-61.626,44.805c-1.371,0.998-2.669,2.142-3.826,3.381c-1.99,2.132-2.006,4.054,0.117,6.062
				c1.961,1.854,4.098,3.549,6.297,5.119c13.193,9.418,26.444,18.754,39.637,28.171c6.535,4.665,13.011,9.414,19.459,14.199
				c1.148,0.852,2.117,1.996,3.004,3.133c0.983,1.259,1.323,2.744,0.428,4.217c-0.959,1.577-2.289,2.891-4.259,2.505
				c-1.529-0.299-3.12-0.901-4.394-1.786c-6.964-4.842-13.861-9.782-20.739-14.746c-8.994-6.492-17.929-13.065-26.925-19.554
				c-8.586-6.193-17.211-12.332-25.843-18.462c-0.885-0.629-1.911-1.079-2.92-1.496c-0.211-0.087-0.874,0.294-0.922,0.539
				c-0.278,1.416-0.595,2.854-0.604,4.286c-0.052,9.187-0.004,18.375-0.041,27.563c-0.012,2.966-0.557,5.759-2.824,7.997
				c-2.267,2.239-5.095,2.731-8.037,2.739C266.453,146.015,250.789,145.991,235.124,145.993z M241.512,134.021
				c0,0.041,0,0.081,0,0.122c2.257,0,4.515,0.008,6.772-0.001c9.08-0.039,18.16-0.109,27.239-0.114
				c3.895-0.002,5.527-1.506,5.563-5.412c0.033-3.613,0.022-7.226,0.021-10.839c-0.003-17.262-0.005-34.524-0.024-51.786
				c-0.001-1.097,0.008-2.234-0.263-3.282c-0.76-2.934-1.679-3.255-4.083-1.353c-1.883,1.49-3.654,3.131-5.402,4.782
				c-7.074,6.684-14.116,13.401-21.176,20.099c-6.877,6.524-13.755,13.047-20.645,19.557c-8.059,7.614-16.149,15.194-24.172,22.845
				c-0.916,0.874-1.555,2.069-2.18,3.194c-0.152,0.274,0.16,1.161,0.434,1.254c1.215,0.413,2.491,0.888,3.748,0.895
				C218.733,134.049,230.123,134.021,241.512,134.021z"/>
			<path fill="#FF0062" d="M418.016,97.527c0-9.638,0.017-19.277-0.015-28.915c-0.006-1.949,0.621-3.516,2.166-4.719
				c1.007-0.785,1.961-0.864,2.993-0.02c1.405,1.148,2.185,2.54,2.171,4.405c-0.036,4.819-0.06,9.639,0.017,14.457
				c0.025,1.582,0.356,3.162,0.583,4.738c0.136,0.939,0.698,0.764,1.326,0.464c2.346-1.122,4.647-2.364,7.065-3.303
				c5.918-2.3,11.811-2.049,17.472,0.834c9.603,4.891,14.411,12.956,14.299,23.578c-0.063,5.98-2.439,11.414-6.681,15.874
				c-4.189,4.404-9.278,6.942-15.306,7.59c-4.582,0.492-8.864-0.561-12.948-2.603c-1.291-0.646-2.626-1.203-3.934-1.816
				c-0.687-0.322-0.924-0.021-1.398,0.544c-1.037,1.235-2.283,2.325-3.582,3.288c-0.339,0.251-1.289-0.021-1.782-0.332
				c-1.75-1.105-2.47-2.76-2.462-4.846C418.035,117.005,418.016,107.266,418.016,97.527z M441.742,90.508
				c-0.934,0.143-2.293,0.236-3.592,0.567c-11.335,2.886-16.435,16.86-9.794,26.761c5.392,8.037,15.785,9.975,23.325,4.349
				c6.655-4.966,8.976-14.463,5.224-21.878C453.863,94.295,449.043,90.831,441.742,90.508z"/>
			<path fill="#FF0062" d="M517.151,110.385c-4.92,0.001-9.839-0.008-14.759,0.013c-0.692,0.003-1.407,0.073-2.071,0.258
				c-2.107,0.585-2.755,1.764-2.038,3.894c1.329,3.947,4.019,6.818,7.576,8.823c6.593,3.716,14.224,2.651,19.694-2.594
				c1.085-1.04,2.163-2.099,3.341-3.027c1.574-1.238,2.864-1.154,4.177,0.092c1.263,1.199,1.497,2.816,0.406,4.366
				c-3.317,4.707-7.645,8.041-13.299,9.508c-12.152,3.155-23.868-3.031-28.802-14.86c-3.867-9.27-0.625-20.795,7.075-27.449
				c4.912-4.245,10.617-6.591,17.119-6.103c6.841,0.513,12.341,3.922,16.751,9.086c3.017,3.532,4.567,7.693,5.286,12.274
				c0.519,3.306-2.544,5.783-5.096,5.742C527.393,110.326,522.271,110.384,517.151,110.385z M513.722,103.269
				c2.107,0,4.217,0.062,6.322-0.016c2.489-0.092,4.973-0.308,7.46-0.466c1.152-0.073,1.582-0.827,1.201-1.747
				c-0.638-1.544-1.285-3.173-2.319-4.45c-7.038-8.691-20.534-7.772-26.424,1.745c-0.414,0.669-0.726,1.442-0.904,2.208
				c-0.278,1.197-0.093,2.195,1.478,2.311c1.038,0.076,2.066,0.38,3.101,0.396C506.998,103.302,510.361,103.269,513.722,103.269z"/>
			<path fill="#FF0062" d="M606.273,108.159c0,6.275-0.01,12.549,0.005,18.824c0.005,2.026-0.752,3.65-2.534,4.622
				c-0.518,0.282-1.517,0.365-1.917,0.054c-1.159-0.901-2.091-2.088-3.187-3.079c-0.364-0.329-1.025-0.656-1.433-0.547
				c-0.955,0.255-1.891,0.688-2.745,1.2c-12.292,7.375-27.023,1.957-33.077-10.87c-6.441-13.647,1.446-30.676,16.717-34.591
				c5.078-1.302,9.937-0.34,14.555,2.059c1.549,0.805,3.141,1.534,4.755,2.197c0.299,0.123,0.913-0.12,1.179-0.393
				c0.996-1.02,1.799-2.252,2.879-3.161c1.382-1.162,3.741,0.109,4.426,2.35c0.259,0.847,0.358,1.772,0.363,2.663
				C606.287,95.71,606.273,101.935,606.273,108.159z M599.172,108.041c-0.075-3.395-1.141-6.494-2.805-9.417
				c-4.876-8.563-15.769-10.635-23.437-4.455c-6.014,4.846-8.025,12.713-5.17,20.73c2.51,7.05,11.108,12.882,20.062,9.768
				C594.318,122.407,599.185,115.275,599.172,108.041z"/>
			<path fill="#FF0062" d="M702.023,83.256c5.087,0.117,9.555,2.008,13.673,4.853c0.528,0.365,0.99,0.861,1.388,1.37
				c0.793,1.015,1.458,2.071,0.583,3.41c-0.983,1.504-2.373,2.182-3.972,1.65c-1.131-0.377-2.239-0.907-3.253-1.538
				c-3.772-2.348-7.834-2.939-12.136-2.122c-2.432,0.462-4.346,1.76-5.676,3.865c-0.962,1.523-0.761,3.359,0.402,4.726
				c2.098,2.468,5.041,3.13,7.976,3.85c3.255,0.798,6.562,1.446,9.733,2.501c3.989,1.327,7.217,3.771,8.893,7.798
				c2.204,5.297,0.606,10.802-4.278,14.584c-6.191,4.793-13.095,5.431-20.389,3.155c-3.805-1.187-7.477-2.68-10.203-5.791
				c-1.234-1.409-1.456-2.701-0.719-3.81c0.999-1.504,2.618-2.093,4.352-1.311c1.593,0.717,3.047,1.734,4.598,2.552
				c4.309,2.275,8.82,3.242,13.638,1.93c2.146-0.585,3.908-1.799,5.342-3.479c1.931-2.261,1.796-4.707-0.294-6.839
				c-1.643-1.676-3.695-2.568-5.907-3.132c-3.256-0.83-6.553-1.508-9.785-2.421c-4.654-1.314-8.537-3.718-10.721-8.278
				c-1.278-2.669-1.255-5.326,0.075-7.962c2.784-5.515,7.434-8.351,13.396-9.29c0.544-0.086,1.083-0.216,1.63-0.261
				C700.917,83.22,701.472,83.256,702.023,83.256z"/>
			<path fill="#FF0062" d="M638.964,108.74c0-4.365,0.037-8.731-0.023-13.095c-0.017-1.234-0.237-2.484-0.536-3.684
				c-0.093-0.372-0.717-0.715-1.167-0.875c-1.672-0.595-3.545-0.641-4.874-2.108c-1.394-1.539-1.522-2.774,0.027-4.139
				c0.822-0.725,1.912-1.321,2.975-1.564c2.865-0.654,3.576-1.37,3.594-4.347c0.021-3.261,0.019-6.523,0-9.784
				c-0.01-1.716,0.624-3.115,1.922-4.221c1.286-1.096,2.344-1.139,3.63-0.063c1.207,1.01,1.915,2.29,1.906,3.917
				c-0.012,2.408-0.002,4.817-0.002,7.225c0,0.903-0.004,1.806,0.001,2.709c0.018,2.99,0.547,3.699,3.356,4.5
				c0.481,0.137,1.003,0.186,1.445,0.401c1.39,0.675,2.654,1.544,2.812,3.244c0.115,1.233-1.463,2.902-3.03,3.393
				c-0.573,0.179-1.154,0.333-1.725,0.52c-2.218,0.729-2.821,1.366-2.833,3.657c-0.047,9.031-0.045,18.062,0.004,27.093
				c0.008,1.486,0.546,2.827,1.991,3.65c0.596,0.339,1.084,0.884,1.584,1.373c0.97,0.95,2.076,1.87,1.34,3.478
				c-0.721,1.577-2.415,2.558-4.192,2.29c-3.53-0.532-5.927-2.658-7.328-5.802c-0.591-1.326-0.806-2.904-0.84-4.376
				C638.897,117.673,638.964,113.206,638.964,108.74z"/>
		</g>
	</g>
</g>
<g id="Layer_2">
	<g>
		
			<text transform="matrix(1 0 0 1 74.2268 111.5839)" fill="#FF0044" stroke="#FF0044" stroke-miterlimit="10" font-family="'BradleyHandITC'" font-size="80.7474">Aashna KUNKOLIENKER</text>
	</g>
</g>
</svg>
